<?xml version="1.0" encoding="UTF-8" standalone="no"?>
<svg width="228px" height="40px" viewBox="0 0 228 40" version="1.1" xmlns="http://www.w3.org/2000/svg" xmlns:xlink="http://www.w3.org/1999/xlink" xmlns:sketch="http://www.bohemiancoding.com/sketch/ns">
    <!-- Generator: Sketch 3.3.3 (12072) - http://www.bohemiancoding.com/sketch -->
    <title>browser</title>
    <desc>Created with Sketch.</desc>
    <defs></defs>
    <g id="Page-1" stroke="none" stroke-width="1" fill="none" fill-rule="evenodd" sketch:type="MSPage">
        <g id="Capture-View-(Not-Logged-In)" sketch:type="MSArtboardGroup" transform="translate(-212.000000, -44.000000)">
            <g id="browser" sketch:type="MSLayerGroup" transform="translate(212.000000, 44.000000)">
                <path d="M8.3647922,3.67167545 C9.23075136,1.64386509 11.7214346,0 13.9303621,0 L224.162392,0 C226.370212,0 228.160003,1.79642476 228.160003,4.00002553 L228.159999,40 L0.501550428,40 C0.501550428,20 8.3647922,3.67167545 8.3647922,3.67167545 Z" id="Rectangle-93" fill="#46A9E2" sketch:type="MSShapeGroup"></path>
                <text id="Browser" sketch:type="MSTextLayer" font-family="Verdana" font-size="14" font-weight="normal" fill="#FFFFFF">
                    <tspan x="96" y="24">Browser</tspan>
                </text>
                <g id="Chrom-Icon" transform="translate(62.500000, 9.000000)" fill="#FFFFFF" sketch:type="MSShapeGroup">
                    <path d="M9.99921249,19.9814576 C15.5118193,19.9814576 19.9806701,15.5126068 19.9806701,10 C19.9806701,4.48739318 15.5118193,0.0185423826 9.99921249,0.0185423826 C4.48660566,0.0185423826 0.0177548683,4.48739318 0.0177548683,10 C0.0177548683,15.5126068 4.48660566,19.9814576 9.99921249,19.9814576 L9.99921249,19.9814576 Z M9.99921249,19.200785 C4.91775927,19.200785 0.798427531,15.0814532 0.798427531,10 C0.798427531,4.91854678 4.91775927,0.799215045 9.99921249,0.799215045 C15.0806657,0.799215045 19.1999974,4.91854678 19.1999974,10 C19.1999974,15.0814532 15.0806657,19.200785 9.99921249,19.200785 L9.99921249,19.200785 Z" id="Shape"></path>
                    <path d="M5.91564021,8.32192793 L2.52705986,5.23798389 L5.68915707,10.4244894 C5.9782439,12.5775923 7.82271219,14.2379373 10.0549748,14.2379373 C10.2874513,14.2379373 10.5157218,14.2199293 10.7384674,14.1852321 L9.7743573,18.6050755 L12.6001484,13.4287158 C13.7256589,12.6306559 14.4601991,11.317465 14.4601991,9.832713 C14.4601991,8.83679931 14.1297146,7.91807443 13.5724311,7.18022396 L17.9209806,5.79286811 L12.1038742,5.93196051 C11.4918143,5.60980777 10.794686,5.42748869 10.0549748,5.42748869 C8.15278523,5.42748869 6.53218647,6.63312233 5.91564021,8.32192793 Z M10.0549748,13.1226907 C8.23797034,13.1226907 6.76499717,11.6497175 6.76499717,9.832713 C6.76499717,8.01570852 8.23797034,6.54273535 10.0549748,6.54273535 C11.8719793,6.54273535 13.3449525,8.01570852 13.3449525,9.832713 C13.3449525,11.6497175 11.8719793,13.1226907 10.0549748,13.1226907 L10.0549748,13.1226907 Z" id="Shape"></path>
                </g>
            </g>
        </g>
    </g>
</svg>