<?xml version="1.0" encoding="UTF-8" standalone="no"?>
<svg width="228px" height="40px" viewBox="0 0 228 40" version="1.1" xmlns="http://www.w3.org/2000/svg" xmlns:xlink="http://www.w3.org/1999/xlink" xmlns:sketch="http://www.bohemiancoding.com/sketch/ns">
    <!-- Generator: Sketch 3.3.3 (12072) - http://www.bohemiancoding.com/sketch -->
    <title>server</title>
    <desc>Created with Sketch.</desc>
    <defs></defs>
    <g id="Page-1" stroke="none" stroke-width="1" fill="none" fill-rule="evenodd" sketch:type="MSPage">
        <g id="Capture-View-(Not-Logged-In)" sketch:type="MSArtboardGroup" transform="translate(0.000000, -44.000000)">
            <g id="server" sketch:type="MSLayerGroup" transform="translate(0.000000, 44.000000)">
                <path d="M8.03401539,3.67167545 C8.89997454,1.64386509 11.3906578,0 13.5995853,0 L223.831615,0 C226.039435,0 227.829227,1.79642476 227.829226,4.00002553 L227.829222,40 L0.170773614,40 C0.170773614,20 8.03401539,3.67167545 8.03401539,3.67167545 Z" id="Rectangle-93-Copy" fill="#46A9E2" sketch:type="MSShapeGroup" transform="translate(114.000000, 20.000000) scale(-1, 1) translate(-114.000000, -20.000000) "></path>
                <text id="Server" sketch:type="MSTextLayer" font-family="Verdana" font-size="14" font-weight="normal" fill="#FFFFFF">
                    <tspan x="87" y="24">Server</tspan>
                </text>
                <g id="fa-cloud" transform="translate(49.000000, 9.000000)" fill="#FFFFFF" sketch:type="MSShapeGroup">
                    <path d="M2.1,16.274 C3.2,17.374 4.524,17.913 6.073,17.913 L19.697,17.913 C21.022,17.913 22.144,17.442 23.087,16.499 C24.029,15.556 24.501,14.434 24.501,13.11 C24.501,11.965 24.142,10.977 23.446,10.102 C22.75,9.227 21.852,8.665 20.775,8.418 C21.134,7.88 21.291,7.319 21.291,6.69 C21.291,5.792 20.977,5.052 20.348,4.423 C19.72,3.795 18.979,3.48 18.081,3.48 C17.296,3.48 16.6,3.75 16.016,4.266 C15.522,3.076 14.737,2.111 13.659,1.37 C12.582,0.63 11.392,0.271 10.068,0.271 C8.317,0.271 6.791,0.899 5.534,2.156 C4.3,3.413 3.671,4.917 3.671,6.69 C3.671,6.802 3.671,6.982 3.694,7.229 C2.728,7.678 1.943,8.351 1.359,9.271 C0.753,10.192 0.461,11.202 0.461,12.302 C0.461,13.85 1,15.175 2.1,16.274" id="Fill-78"></path>
                </g>
            </g>
        </g>
    </g>
</svg>